# xmcd CD database file
# Copyright (C) 1997 Ti Kan
#
# Track frame offsets:
#  150
#  16795
#  32947
#  49492
#  67062
#  86412
#  111072
#  135170
#  152237
#  171397
#  183097
#  208640
#  220882
#  236125
#  255190
#
# Disc length: 3752 seconds
#
# Revision: 2
# Processed by: cddbd v1.4PL0 Copyright (c) Steve Scherf et al.
# Submitted via: Gronk 1.4
#
DISCID=cb0ea60f
DTITLE=Lonnie Brooks - Lonnie Brooks Deluxe Edition
DYEAR=1900
DGENRE=blues
TTITLE0=Jealous man
TTITLE1=Something You Got
TTITLE2=Temporary Insanity
TTITLE3=End of the Rope
TTITLE4=Don't Take Advantage of Me
TTITLE5=You Know What My Body Needs
TTITLE6=In the Dark
TTITLE7=Hoodoo She Do
TTITLE8=Figurehead
TTITLE9=One More Shot
TTITLE10=Cold Lonely Nights
TTITLE11=Zydeco
TTITLE12=Family Rules
TTITLE13=Roll of the Tumbling Dice
TTITLE14=Like Father, Like Son
EXTD=
EXTT0=
EXTT1=
EXTT2=
EXTT3=
EXTT4=
EXTT5=
EXTT6=
EXTT7=
EXTT8=
EXTT9=
EXTT10=
EXTT11=
EXTT12=
EXTT13=
EXTT14=
PLAYORDER=
